<?xml version="1.0" ?><svg xmlns="http://www.w3.org/2000/svg" id="_레이어_1_사본" data-name="레이어 1 사본" viewBox="0 0 100 100"><defs><style>
      .cls-1 {
        stroke-width: 0px;
      }
    </style></defs><path class="cls-1" d="m28.3813477,44.230957c-8.8789062,0-16.1025391-7.2236328-16.1025391-16.1025391,0-2.5727539.621582-5.1313477,1.7978516-7.3999023.3183594-.612793,1.0727539-.8520508,1.6850586-.534668.6132812.3178711.8520508,1.0722656.534668,1.6850586-1.0068359,1.9418945-1.5175781,4.0444336-1.5175781,6.2495117,0,7.5004883,6.1020508,13.6025391,13.6025391,13.6025391,7.5,0,13.6020508-6.1020508,13.6020508-13.6025391s-6.1020508-13.6025391-13.6020508-13.6025391c-2.0073242,0-3.9399414.4267578-5.7451172,1.269043-.6259766.2915039-1.3691406.0209961-1.6611328-.6044922s-.0214844-1.3691406.6044922-1.6611328c2.1381836-.9975586,4.4267578-1.503418,6.8017578-1.503418,8.8789062,0,16.1020508,7.2236328,16.1020508,16.1025391s-7.2231445,16.1025391-16.1020508,16.1025391Z"/><path class="cls-1" d="m73.9667969,87.9736328c-7.5839844,0-13.7539062-6.1699219-13.7539062-13.7539062s6.1699219-13.7548828,13.7539062-13.7548828,13.7539062,6.1708984,13.7539062,13.7548828c0,1.4736328-.2314453,2.9228516-.6875,4.3066406-.2167969.6542969-.9257812,1.0068359-1.5791016.7958984-.6552734-.2167969-1.0117188-.9238281-.7958984-1.5791016.3730469-1.1308594.5625-2.3164062.5625-3.5234375,0-6.2060547-5.0488281-11.2548828-11.2539062-11.2548828s-11.2539062,5.0488281-11.2539062,11.2548828c0,6.2050781,5.0488281,11.2539062,11.2539062,11.2539062,1.2597656,0,2.4960938-.2060547,3.671875-.6123047.6591797-.2275391,1.3652344.1210938,1.5898438.7734375.2255859.6523438-.1210938,1.3642578-.7734375,1.5898438-1.4394531.4970703-2.9501953.7490234-4.4882812.7490234Z"/><path class="cls-1" d="m62.1533203,71.3652344c-.3203125,0-.6396484-.1220703-.8837891-.3662109l-28.2119141-28.2128906c-.4882812-.4882812-.4882812-1.2797852,0-1.7675781.4882812-.4882812,1.2792969-.4882812,1.7675781,0l28.2119141,28.2128906c.4882812.4882812.4882812,1.2792969,0,1.7675781-.2441406.2441406-.5634766.3662109-.8837891.3662109Z"/><path class="cls-1" d="m71.9580078,62.9648438c-.3203125,0-.6396484-.1220703-.8837891-.3662109l-29.3417969-29.3417969c-.4882812-.4882812-.4882812-1.2792969,0-1.7675781s1.2792969-.4882812,1.7675781,0l29.3417969,29.3417969c.4882812.4882812.4882812,1.2792969,0,1.7675781-.2441406.2441406-.5634766.3662109-.8837891.3662109Z"/><path class="cls-1" d="m77.90625,86.9208984c-.3164062,0-.6318359-.1191406-.875-.3574219l-4.4970703-4.4121094c-.3193359-.3134766-.4472656-.7724609-.3349609-1.2050781l1.5732422-6.1015625c.1113281-.4316406.4453125-.7724609.875-.8916016l6.0703125-1.6875c.4306641-.1230469.8916016-.0009766,1.2109375.3115234l4.4970703,4.4130859c.4921875.484375.5,1.2753906.0166016,1.7685547-.484375.4921875-1.2744141.4990234-1.7685547.0166016l-3.9814453-3.9082031-4.6796875,1.3007812-1.2128906,4.7041016,3.9814453,3.90625c.4931641.4833984.5009766,1.2753906.0175781,1.7675781-.2451172.25-.5683594.375-.8925781.375Z"/><path class="cls-1" d="m22.1352539,32.7324219c-.3984375,0-.7827148-.190918-1.0214844-.5297852l-7.0444336-9.9912109c-.3979492-.5639648-.2631836-1.3442383.3012695-1.7416992.5639648-.3974609,1.34375-.2626953,1.7416992.3012695l6.5131836,9.2373047,6.0131836-1.9589844,1.887207-5.9316406-9.1376953-6.4335938c-.5644531-.3974609-.699707-1.1772461-.3022461-1.7416992.3969727-.5639648,1.1777344-.7006836,1.7416992-.3022461l9.8867188,6.9609375c.4458008.3139648.6367188.8808594.4716797,1.4008789l-2.3588867,7.4160156c-.1220703.3837891-.4213867.6850586-.8041992.8095703l-7.5004883,2.4433594c-.1274414.0415039-.2578125.0615234-.387207.0615234Z"/><path class="cls-1" d="m62.1533203,61.7548828c-.3203125,0-.6396484-.1220703-.8837891-.3662109l-18.6020508-18.6025391c-.4882812-.4882812-.4882812-1.2792969,0-1.7675781s1.2792969-.4882812,1.7675781,0l18.6020508,18.6025391c.4882812.4882812.4882812,1.2792969,0,1.7675781-.2441406.2441406-.5634766.3662109-.8837891.3662109Z"/></svg>