<?xml version="1.0" ?><!DOCTYPE svg  PUBLIC '-//W3C//DTD SVG 1.1//EN'  'http://www.w3.org/Graphics/SVG/1.1/DTD/svg11.dtd'><svg enable-background="new 0 0 70 70" id="Layer_1" version="1.1" viewBox="0 0 70 70" xml:space="preserve" xmlns="http://www.w3.org/2000/svg" xmlns:xlink="http://www.w3.org/1999/xlink"><g><path d="M36.2285156,33.4047852c-2.9555664,0-5.4428711-2.1782227-5.6621094-4.9589844   c-0.2128906-2.690918,1.5668945-5.7915039,4.8134766-6.1083984c3.0473633-0.2919922,5.6508789,2.253418,5.8007813,5.5625   c0.0732422,1.6040039-0.4155273,3.0405273-1.3754883,4.0454102C38.9057617,32.8867188,37.6357422,33.4047852,36.2285156,33.4047852   z M35.8652344,23.8139648c-0.1123047,0-0.2255859,0.0053711-0.3398438,0.0166016   c-2.2670898,0.2211914-3.621582,2.5039063-3.4638672,4.4970703c0.1582031,2.0058594,1.9887695,3.5771484,4.1669922,3.5771484   c1.0078125,0,1.8696289-0.3442383,2.4921875-0.9956055c0.684082-0.7158203,1.0166016-1.7329102,0.9619141-2.940918   C39.5766602,25.6386719,37.8999023,23.8139648,35.8652344,23.8139648z" fill="#373684"/><path d="M11.7553711,57.0078125c-0.1132813,0-2.7954102-0.0112305-3.7529297-1.0004883   c-1.0717773-1.1064453-0.5102539-5.5498047,0.1660156-6.3803711c0.5297852-0.6508789,1.925293-0.8242188,2.6665039-0.8242188   c0.777832,0,1.8061523,0.1533203,2.2900391,0.8828125c0.6137695,0.9257813,1.0561523,6.1625977,0.2216797,6.9458008   C13.1484375,56.8173828,12.8041992,57.0078125,11.7553711,57.0078125z M10.8349609,50.3027344   c-0.7666016,0-1.3955078,0.1933594-1.5322266,0.3012695c-0.3266602,0.5825195-0.5898438,3.8364258-0.2114258,4.3730469   c0.2324219,0.2387695,1.4541016,0.5307617,2.6640625,0.5307617c0.2133789,0,0.3735352-0.0102539,0.4873047-0.0224609   c0.15625-1.0683594-0.0185547-4.4072266-0.3686523-4.972168C11.8388672,50.472168,11.5498047,50.3027344,10.8349609,50.3027344z" fill="#373684"/><path d="M31.25,66.4584961c-0.315918,0-0.6098633-0.2006836-0.7128906-0.5175781   c-0.4091797-1.2553711-1.0595703-11.5683594,0.2856445-12.3754883c0.8095703-0.4858398,6.8374023-0.9614258,8.3227539-0.5283203   c0.1337891,0.0385742,0.5400391,0.1572266,0.7338867,0.5439453c0.2705078,0.5424805,0.6132813,11.4873047-0.1992188,12.3818359   c-0.277832,0.3066406-0.753418,0.3291016-1.0595703,0.0507813c-0.2617188-0.2382813-0.3168945-0.6191406-0.1533203-0.9160156   c0.2680664-1.0292969,0.3183594-8.9111328,0.0883789-10.6635742c-1.1767578-0.2055664-5.6176758,0.0883789-6.8085938,0.3803711   c-0.3618164,1.5097656-0.3193359,9.019043,0.2158203,10.6616211c0.128418,0.3935547-0.0864258,0.8168945-0.4804688,0.9453125   C31.4052734,66.4467773,31.3266602,66.4584961,31.25,66.4584961z" fill="#373684"/><path d="M11.425293,46.3310547c-2.7612305,0-3.097168-0.6860352-3.2236328-0.9438477   c-0.4199219-0.8564453-0.4257813-5.3901367-0.0981445-6.2739258c0.0957031-0.2573242,0.2558594-0.4360352,0.4755859-0.5307617   c0.1171875-0.0498047,0.3330078-0.1420898,1.5639648-0.1420898c2.7739258,0,3.1606445,0.3618164,3.3066406,0.4980469   c0.753418,0.7041016,0.6494141,5.5966797,0.6469727,5.6445313c-0.0385742,0.7109375-0.1230469,1.144043-0.4589844,1.3959961   C13.5209961,46.0664063,13.1669922,46.3310547,11.425293,46.3310547z M9.5239258,44.6240234   c0.2382813,0.0854492,0.8652344,0.2070313,1.9013672,0.2070313c0.5253906,0,0.918457-0.0322266,1.159668-0.0644531   c0.1005859-0.9790039-0.0332031-3.7646484-0.2290039-4.6904297c-0.3813477-0.0668945-1.1933594-0.1357422-2.2128906-0.1357422   c-0.3007813,0-0.5283203,0.0063477-0.6933594,0.0146484C9.3183594,41.0185547,9.3549805,43.8393555,9.5239258,44.6240234z" fill="#373684"/><path d="M19.3681641,46.2729492c-2.3286133,0-2.71875-0.5791016-2.8652344-0.796875   c-0.5043945-0.7495117-1.0849609-5.9580078-0.1308594-6.6503906c0.1425781-0.1035156,0.4389648-0.3183594,1.9418945-0.3183594   c1.175293,0,2.6791992,0.1083984,3.1674805,0.6235352c0.6665039,0.703125,1.1000977,5.7573242,0.8232422,6.3505859   C22.1943359,45.71875,21.9355469,46.2729492,19.3681641,46.2729492z M17.7255859,44.5830078   c0.1694336,0.0683594,0.6713867,0.1899414,1.6425781,0.1899414c0.6904297,0,1.2416992-0.0625,1.5541992-0.121582   c-0.0029297-1.0166016-0.3056641-3.706543-0.5478516-4.453125c-0.3149414-0.0883789-1.1040039-0.190918-2.0605469-0.190918   c-0.4365234,0-0.7353516,0.0214844-0.921875,0.0444336C17.265625,41.0385742,17.4648438,43.8984375,17.7255859,44.5830078z" fill="#373684"/><path d="M28.1455078,46.5253906c-0.1088867,0-2.6650391-0.0117188-3.4291992-1.0131836   c-0.7270508-0.953125-0.3891602-4.4951172-0.2924805-5.152832c0.1230469-0.8354492,0.2729492-1.2084961,0.5737305-1.4267578   c0.4975586-0.3613281,2.0722656-0.6523438,3.0439453-0.6523438c0.840332,0,1.3930664,0.1972656,1.6894531,0.6035156   c0.6206055,0.8505859,0.7617188,6.5249023-0.034668,7.2602539C29.5039063,46.3212891,29.1538086,46.5253906,28.1455078,46.5253906z    M25.9902344,40.1088867c-0.2416992,0.8740234-0.3432617,3.9609375-0.0600586,4.5258789   c0.1518555,0.1259766,1.1455078,0.390625,2.215332,0.390625c0.2060547,0,0.359375-0.0112305,0.465332-0.0249023   c0.2001953-1.0288086,0.152832-4.359375-0.0839844-5.1767578c-0.0800781-0.0195313-0.2304688-0.043457-0.4853516-0.043457   C27.28125,39.7802734,26.3671875,39.9814453,25.9902344,40.1088867z" fill="#373684"/><path d="M34.7788086,46.4350586c-1.4057617,0-2.0449219-0.2128906-2.2802734-0.7597656   c-0.1899414-0.4418945-0.637207-6.1523438,0.5668945-6.840332c0.5737305-0.3276367,1.8413086-0.3530273,2.2158203-0.3530273   c1.8129883,0,2.1279297,0.4321289,2.262207,0.6162109c0.3510742,0.4814453,0.9936523,6.1733398,0.1079102,6.8701172   C37.0732422,46.4223633,35.0117188,46.4350586,34.7788086,46.4350586z M33.8476563,44.8759766   c0.1645508,0.0283203,0.4541016,0.059082,0.9311523,0.059082c0.71875,0,1.4291992-0.0732422,1.8032227-0.1435547   c0.1083984-0.9819336-0.0698242-3.855957-0.2563477-4.7246094c-0.1772461-0.0385742-0.5146484-0.0849609-1.0444336-0.0849609   c-0.6181641,0-1.0917969,0.0625-1.3320313,0.1166992C33.7236328,40.9350586,33.7192383,43.8671875,33.8476563,44.8759766z" fill="#373684"/><path d="M42.9599609,46.3022461c-1.2368164,0-1.6669922-0.2836914-1.8833008-0.4970703   c-0.9072266-0.8979492-0.5581055-5.3637695-0.5537109-5.4077148c0.1020508-0.9707031,0.2739258-1.4174805,0.6342773-1.6489258   c0.1782227-0.1147461,0.5102539-0.2675781,1.3291016-0.2675781c0.9199219,0,2.2368164,0.1958008,2.847168,0.5229492   c0.375,0.2006836,0.6054688,0.6191406,0.7709961,1.3994141c0.2016602,0.9506836,0.5029297,4.3725586-0.0751953,5.1147461   C45.4262695,46.2929688,43.0605469,46.3022461,42.9599609,46.3022461z M42.1625977,44.7402344   c0.0854492,0.0126953,0.3447266,0.0620117,0.7973633,0.0620117c0.8061523,0,1.5400391-0.1401367,1.8530273-0.2446289   c0.1508789-0.8735352,0.0078125-3.6083984-0.2929688-4.277832c-0.3833008-0.1450195-1.2861328-0.2988281-2.0336914-0.2988281   c-0.1801758,0-0.3085938,0.0092773-0.3959961,0.0200195C41.8652344,40.9360352,41.9038086,43.9975586,42.1625977,44.7402344z" fill="#373684"/><path d="M19.8925781,57.0585938c-0.7607422,0-3.0668945-0.1811523-3.6621094-0.9853516   c-0.6333008-0.855957-0.5317383-5.8725586,0.3500977-6.6699219c0.159668-0.1450195,0.5854492-0.5302734,2.5087891-0.5302734   c0.847168,0,2.3374023,0.065918,2.8022461,0.5078125c0.7412109,0.7041016,0.5991211,6.0371094,0.144043,6.8833008   C21.7441406,56.8061523,21.0629883,57.0585938,19.8925781,57.0585938z M17.4443359,55.1533203   c0.3334961,0.1586914,1.3876953,0.4052734,2.4482422,0.4052734c0.4643555,0,0.7319336-0.0532227,0.8515625-0.0922852   c0.2197266-0.7763672,0.2021484-3.9648438,0.0341797-4.9628906c-0.3120117-0.0605469-0.918457-0.1303711-1.6889648-0.1303711   c-0.8588867,0-1.309082,0.0898438-1.4775391,0.1459961C17.2949219,51.2729492,17.2299805,54.3686523,17.4443359,55.1533203z" fill="#373684"/><path d="M52.277832,56.984375c-1.1635742,0-3.1801758-0.1240234-3.6103516-0.9550781   c-0.402832-0.7768555-0.1411133-6.1450195,0.6577148-6.8808594c0.2788086-0.2568359,0.7055664-0.371582,1.3837891-0.371582   c0.8774414,0,2.793457,0.2529297,3.4624023,0.8613281c0.859375,0.78125,0.9008789,5.9326172,0.4213867,6.6928711   C54.378418,56.6704102,53.949707,56.984375,52.277832,56.984375z M49.9960938,55.2280273   c0.3725586,0.1210938,1.2729492,0.2563477,2.2817383,0.2563477c0.5551758,0,0.8974609-0.043457,1.0751953-0.0800781   c0.1367188-0.8208008,0.0458984-3.9785156-0.2382813-4.6855469c-0.3227539-0.1743164-1.4931641-0.4418945-2.4057617-0.4418945   c-0.152832,0-0.2612305,0.0083008-0.3349609,0.0175781C50.1020508,51.1870117,49.8959961,54.3110352,49.9960938,55.2280273z" fill="#373684"/><path d="M51.7363281,46.3325195c-0.3857422,0-2.3422852-0.03125-3.015625-0.6523438   c-0.2504883-0.230957-0.5102539-0.6694336-0.5454102-2.1743164c-0.0004883-0.0336914-0.0576172-3.4350586,0.6870117-4.1894531   c0.6259766-0.6342773,2.6318359-0.7768555,3.2851563-0.7768555c0.9433594,0,1.5043945,0.1635742,1.8183594,0.5302734   c0.7099609,0.8305664,0.565918,5.8813477-0.0117188,6.6518555C53.7407227,46.0058594,53.2958984,46.3325195,51.7363281,46.3325195z    M49.7866211,44.5991211c0.2241211,0.0834961,0.9897461,0.2333984,1.949707,0.2333984   c0.5556641,0,0.8857422-0.0517578,1.0419922-0.0913086c0.1708984-0.6948242,0.2543945-3.7836914,0.0351563-4.6474609   c-0.109375-0.0244141-0.3154297-0.0541992-0.6660156-0.0541992c-0.9389648,0-1.8808594,0.2001953-2.1889648,0.331543   C49.7080078,41.0703125,49.5517578,43.8789063,49.7866211,44.5991211z" fill="#373684"/><path d="M59.6411133,46.3574219c-1.6245117,0-2.6489258-0.2583008-3.0454102-0.7680664   c-0.6293945-0.809082-0.7460938-6.2490234-0.1469727-6.8476563c0.1533203-0.1533203,0.409668-0.409668,2.3911133-0.409668   c2.6079102,0,2.9863281,0.4858398,3.1479492,0.6933594c0.6660156,0.8564453,0.5097656,6.1201172,0.2373047,6.6333008   C62.0957031,45.902832,61.8544922,46.3574219,59.6411133,46.3574219z M57.7788086,44.6381836   c0.2104492,0.0864258,0.8261719,0.2192383,1.8623047,0.2192383c0.6035156,0,1.0395508-0.0473633,1.2841797-0.0913086   c0.0786133-0.8769531,0.0698242-3.925293-0.128418-4.7631836c-0.2734375-0.078125-0.9306641-0.1708984-1.9570313-0.1708984   c-0.5556641,0-0.9711914,0.027832-1.2324219,0.0571289C57.4995117,40.9633789,57.5332031,43.9150391,57.7788086,44.6381836z" fill="#373684"/><path d="M59.2460938,56.7958984c-1.605957,0-2.0610352-0.3583984-2.2783203-0.6704102   c-0.4711914-0.6762695-0.9038086-6.0791016,0.0253906-6.9306641c0.234375-0.2143555,0.6513672-0.4331055,1.9682617-0.4331055   c0.1142578,0,2.8051758,0.0078125,3.4521484,0.6757813c0.5634766,0.5820313,0.4931641,3.2553711,0.4370117,4.3779297   c-0.09375,1.8676758-0.315918,2.2006836-0.5751953,2.4199219C61.6196289,56.7890625,59.3427734,56.7958984,59.2460938,56.7958984z    M58.1835938,55.1967773c0.1518555,0.0424805,0.4848633,0.0991211,1.0625,0.0991211   c0.855957,0,1.6293945-0.1147461,1.9736328-0.2036133c0.1831055-0.8515625,0.2182617-3.7084961,0.0566406-4.5874023   c-0.3920898-0.105957-1.328125-0.2431641-2.3149414-0.2431641c-0.4838867,0-0.7597656,0.0351563-0.9038086,0.0629883   C57.8515625,51.2045898,57.9291992,54.3422852,58.1835938,55.1967773z" fill="#373684"/><path d="M46.2919922,50.6665039c-0.0546875,0-0.1103516-0.0058594-0.1660156-0.0185547   c-2.1889648-0.4956055-18.5791016-1.0869141-21.9902344-0.6538086c-0.4150391,0.0517578-0.7866211-0.2392578-0.8383789-0.6499023   c-0.0517578-0.4111328,0.2392578-0.7861328,0.6499023-0.8383789c3.5771484-0.4521484,20.1484375,0.144043,22.5097656,0.6791992   c0.4042969,0.0913086,0.6572266,0.4931641,0.565918,0.8969727C46.9443359,50.4301758,46.6347656,50.6665039,46.2919922,50.6665039z   " fill="#373684"/><path d="M32.9692383,66.8984375c-1.5136719,0-2.5742188-0.0200195-2.6103516-0.0209961   c-3.6137695-0.1015625-3.8325195-0.3691406-4.0644531-0.6523438c-0.934082-1.1420898-0.1079102-15.6357422,0.0463867-16.7446289   c0.0566406-0.4106445,0.4355469-0.6987305,0.8457031-0.6396484c0.4106445,0.0566406,0.6967773,0.4355469,0.6396484,0.8457031   c-0.3061523,2.2070313-0.6665039,13.4633789-0.3417969,15.496582c2.0776367,0.4335938,13.2783203,0.2319336,15.206543-0.2768555   c0.2485352-1.4541016-0.0161133-8.4980469-0.4394531-14.8564453c-0.0273438-0.4130859,0.2856445-0.7705078,0.6987305-0.7983398   c0.4008789-0.0263672,0.7705078,0.284668,0.7983398,0.6987305c1,15.0288086,0.3432617,15.7451172,0.0957031,16.0151367   C43.0991211,66.7783203,36.6757813,66.8984375,32.9692383,66.8984375z" fill="#373684"/><path d="M23.1967773,36.5327148c-9.6835938,0-17.4672852-0.1308594-18.449707-0.4829102   c-0.3901367-0.1396484-0.5927734-0.5693359-0.453125-0.9589844c0.1391602-0.3876953,0.565918-0.590332,0.9516602-0.4555664   c2.1811523,0.6186523,56.2670898,0.3383789,59.7094727-0.3095703c0.4091797-0.0795898,0.7993164,0.1914063,0.8754883,0.5981445   c0.0766602,0.4072266-0.190918,0.7993164-0.5981445,0.8754883C63.527832,36.1206055,40.3764648,36.5327148,23.1967773,36.5327148z" fill="#373684"/><path d="M14.5620117,36.03125c-0.1416016,0-0.284668-0.0400391-0.4116211-0.1235352   c-0.3461914-0.2275391-0.4418945-0.6928711-0.2143555-1.0385742c0.8305664-1.2626953,19.2753906-18.9301758,22.0229492-18.9301758   c0.0214844,0,0.0419922,0.0009766,0.0615234,0.0029297c2.2944336,0.2548828,18.9897461,16.8051758,20.0117188,18.6655273   c0.199707,0.3632813,0.0668945,0.8193359-0.2963867,1.0185547c-0.3623047,0.199707-0.8193359,0.0668945-1.0180664-0.2958984   C53.4750977,33.0673828,37.984375,18.387207,35.8837891,17.4545898   c-2.3452148,0.8037109-19.2519531,16.0458984-20.6948242,18.2387695   C15.0449219,35.9125977,14.8056641,36.03125,14.5620117,36.03125z" fill="#373684"/><path d="M35.6870117,17.53125c-0.3989258,0-0.730957-0.3144531-0.7490234-0.7167969L34.4589844,5.949707   c-0.0180664-0.4140625,0.3027344-0.7641602,0.7163086-0.7827148c0.4023438-0.0136719,0.7641602,0.3027344,0.7827148,0.7163086   l0.4790039,10.8647461c0.0180664,0.4140625-0.3027344,0.7641602-0.7163086,0.7827148   C35.7094727,17.53125,35.6982422,17.53125,35.6870117,17.53125z" fill="#373684"/><path d="M42.0449219,13.362793c-2.5883789,0-6.1723633-0.449707-6.222168-0.4584961   c-0.4077148-0.0751953-0.6767578-0.4663086-0.6020508-0.8735352c0.0756836-0.4077148,0.4667969-0.6748047,0.8735352-0.6020508   c1.0698242,0.1972656,5.1416016,0.4921875,6.8769531,0.4326172c-0.1328125-0.1933594-0.2792969-0.4023438-0.3999023-0.5742188   c-0.8964844-1.2783203-1.4418945-2.0966797-1.3569336-2.7763672c0.0585938-0.46875,0.3637695-1.0073242,0.7172852-1.6308594   c0.1015625-0.1791992,0.2407227-0.4243164,0.3505859-0.6396484c-1.3754883-0.105957-4.8525391,0.0214844-6.7832031,0.387207   c-0.4106445,0.0732422-0.7998047-0.1904297-0.8764648-0.597168c-0.0771484-0.4072266,0.1904297-0.7998047,0.597168-0.8764648   c1.159668-0.2197266,7.5888672-0.8862305,8.456543-0.0175781c0.6176758,0.6176758,0.1279297,1.4824219-0.4399414,2.4833984   c-0.1894531,0.3349609-0.5068359,0.8950195-0.5336914,1.078125c0.0493164,0.234375,0.7304688,1.2060547,1.0966797,1.7280273   c0.6635742,0.9462891,0.9848633,1.4199219,1.0302734,1.8496094l0.0390625,0.3740234l-0.3076172,0.3266602   C44.25,13.2641602,43.2563477,13.362793,42.0449219,13.362793z" fill="#373684"/><path d="M51.0507813,64.4233398c-3.7592773,0-6.9873047-0.2470703-7.7285156-0.887207   c-0.3134766-0.2705078-0.3481445-0.7441406-0.0771484-1.0576172c0.2705078-0.3129883,0.7446289-0.3481445,1.0576172-0.0771484   c1.2880859,0.8022461,17.2963867,0.6694336,20.0209961-0.5258789c1.8505859-1.3291016,1.3139648-23.3857422,0.4448242-27.2094727   c-0.5908203-2.6000977-5.5805664-9.5908203-6.5673828-10.1337891c-1.0415039-0.5288086-10.2104492-0.5527344-13.6176758-0.3154297   c-0.4208984,0.0385742-0.7719727-0.2822266-0.800293-0.6962891c-0.0288086-0.4130859,0.2827148-0.7709961,0.6962891-0.7998047   c2.0302734-0.1416016,12.8344727-0.3881836,14.4443359,0.4970703c1.5878906,0.8735352,6.6738281,8.3271484,7.3076172,11.1162109   c0.4526367,1.9921875,2.2421875,27.3598633-1.3051758,28.9155273C63.5161133,63.8676758,56.6875,64.4228516,51.0507813,64.4233398z   " fill="#373684"/><path d="M12.8911133,64.4331055c-3.7446289,0-6.7387695-0.2783203-7.3642578-1.105957   C4.0234375,61.3383789,3.0107422,36.78125,3.5214844,34.6967773c0.5541992-2.2631836,4.1689453-10.3027344,8.1201172-11.597168   c2.8461914-0.9331055,8.2426758-0.8466797,12.1826172-0.7836914c1.2587891,0.0195313,2.3583984,0.0371094,3.1567383,0.0180664   c0.3813477-0.0268555,0.7583008,0.315918,0.769043,0.7304688c0.0102539,0.4140625-0.3168945,0.7583008-0.730957,0.769043   c-0.8183594,0.0214844-1.9311523,0.0039063-3.21875-0.0175781c-3.8330078-0.0615234-9.0830078-0.144043-11.6918945,0.7094727   c-3.1391602,1.0283203-6.6040039,8.3808594-7.1298828,10.527832c-0.4956055,2.0229492,0.6552734,25.6162109,1.7519531,27.3798828   c1.0219727,0.7944336,10.875,0.5380859,19.394043-0.1806641c0.409668-0.0288086,0.7758789,0.2709961,0.8105469,0.6845703   c0.034668,0.4125977-0.2719727,0.7753906-0.6845703,0.8105469C22.4296875,64.0698242,17.1704102,64.4331055,12.8911133,64.4331055z   " fill="#373684"/><path d="M56.1669922,27.4375c-0.2807617,0-0.5498047-0.1582031-0.6782227-0.4282227   c-0.1772461-0.3745117-0.0180664-0.8217773,0.355957-0.9995117c0.6396484-0.3032227,1.2602539-0.503418,1.8603516-0.6967773   c0.5795898-0.1865234,1.1269531-0.362793,1.6772461-0.6245117c0.3745117-0.1782227,0.8212891-0.0180664,0.9995117,0.355957   c0.1772461,0.3745117,0.0180664,0.8217773-0.355957,0.9995117c-0.6396484,0.3032227-1.2602539,0.503418-1.8603516,0.6967773   c-0.5795898,0.1865234-1.1269531,0.362793-1.6772461,0.6245117C56.3842773,27.4145508,56.2749023,27.4375,56.1669922,27.4375z" fill="#373684"/><path d="M57.8544922,29.5c-0.2797852,0-0.5483398-0.1572266-0.6772461-0.4267578   c-0.1787109-0.3735352-0.0205078-0.8212891,0.3535156-1c0.5893555-0.2817383,1.1982422-0.5244141,1.8071289-0.7666016   c0.5786133-0.2299805,1.1567383-0.4594727,1.7163086-0.7270508c0.3740234-0.1796875,0.8208008-0.0209961,1.0004883,0.3530273   c0.1787109,0.3740234,0.0205078,0.8217773-0.3530273,1.0004883c-0.590332,0.2817383-1.199707,0.5249023-1.809082,0.7675781   c-0.578125,0.2294922-1.1557617,0.4589844-1.715332,0.7260742C58.0732422,29.4765625,57.9628906,29.5,57.8544922,29.5z" fill="#373684"/><path d="M59.5004883,31.6665039c-0.2666016,0-0.5249023-0.1425781-0.6606445-0.394043   c-0.1967773-0.3642578-0.0605469-0.8193359,0.3041992-1.0161133c0.5117188-0.2758789,1.0395508-0.5043945,1.5498047-0.7255859   c0.5048828-0.21875,0.9814453-0.425293,1.4375-0.671875c0.3642578-0.1962891,0.8193359-0.0610352,1.0166016,0.3037109   c0.1967773,0.3647461,0.0605469,0.8198242-0.3037109,1.0166016c-0.5131836,0.2768555-1.0419922,0.5058594-1.5541992,0.7275391   c-0.503418,0.2182617-0.9790039,0.4243164-1.434082,0.6699219C59.7426758,31.6376953,59.6210938,31.6665039,59.5004883,31.6665039z   " fill="#373684"/><path d="M61.5419922,33.5209961c-0.2958984,0-0.5756836-0.1757813-0.6948242-0.4663086   c-0.1567383-0.3833008,0.0268555-0.8212891,0.4106445-0.9780273c0.3178711-0.1298828,0.5913086-0.2666016,0.8457031-0.3930664   c0.4956055-0.2470703,0.9638672-0.4799805,1.5527344-0.5878906c0.4077148-0.0732422,0.7983398,0.1948242,0.8730469,0.6025391   c0.074707,0.4072266-0.1948242,0.7983398-0.6025391,0.8730469c-0.3808594,0.0698242-0.722168,0.2397461-1.1547852,0.4550781   c-0.284668,0.1416016-0.5908203,0.293457-0.9467773,0.4389648C61.7324219,33.503418,61.6362305,33.5209961,61.5419922,33.5209961z" fill="#373684"/><path d="M9.6147461,63.7392578c-0.3520508,0-0.6665039-0.2495117-0.7353516-0.6079102   c-0.1586914-0.8222656-0.4042969-1.6298828-0.730957-2.4008789c-0.1616211-0.3813477,0.0166016-0.8212891,0.3979492-0.9829102   c0.3798828-0.1625977,0.8212891,0.0161133,0.9829102,0.3979492c0.3676758,0.8676758,0.6445313,1.7763672,0.8227539,2.7016602   c0.0786133,0.4067383-0.1875,0.800293-0.5942383,0.878418C9.7094727,63.7348633,9.6621094,63.7392578,9.6147461,63.7392578z" fill="#373684"/><path d="M13.0820313,63.8266602c-0.3183594,0-0.6137695-0.2041016-0.7148438-0.5239258l-0.9624023-3.0405273   c-0.1245117-0.3950195,0.0942383-0.8164063,0.4892578-0.9414063c0.3969727-0.1225586,0.8164063,0.0942383,0.9414063,0.4892578   l0.9614258,3.0405273c0.125,0.3945313-0.09375,0.815918-0.4887695,0.940918   C13.2329102,63.8154297,13.1567383,63.8266602,13.0820313,63.8266602z" fill="#373684"/><path d="M15.8925781,63.9736328c-0.3125,0-0.6040039-0.1962891-0.7099609-0.5083008   c-0.1948242-0.5717773-0.3344727-1.0727539-0.4741211-1.5732422c-0.1328125-0.4755859-0.2651367-0.9511719-0.449707-1.4941406   c-0.1333008-0.3920898,0.0761719-0.8183594,0.4682617-0.9516602c0.3925781-0.1352539,0.8178711,0.0761719,0.9516602,0.4682617   c0.1948242,0.5722656,0.3349609,1.0732422,0.4746094,1.574707c0.1323242,0.4750977,0.2646484,0.9501953,0.4492188,1.4926758   c0.1333008,0.3920898-0.0761719,0.8183594-0.4682617,0.9516602C16.0541992,63.9609375,15.9726563,63.9736328,15.8925781,63.9736328   z" fill="#373684"/><path d="M18.965332,63.5952148c-0.2954102,0-0.5751953-0.175293-0.6943359-0.465332   c-0.2285156-0.5566406-0.3930664-1.0131836-0.5571289-1.4697266c-0.1572266-0.4370117-0.3144531-0.8740234-0.5327148-1.4067383   c-0.1572266-0.3833008,0.0258789-0.8212891,0.4091797-0.9785156c0.3847656-0.15625,0.8212891,0.0263672,0.9785156,0.4091797   c0.2280273,0.5561523,0.3920898,1.012207,0.5566406,1.4682617c0.1572266,0.4375,0.3144531,0.875,0.5332031,1.4082031   c0.1572266,0.3833008-0.0258789,0.8212891-0.4091797,0.9785156C19.15625,63.5771484,19.0600586,63.5952148,18.965332,63.5952148z" fill="#373684"/><path d="M22.3720703,63.4116211c-0.3012695,0-0.5854492-0.1831055-0.7001953-0.4814453   c-0.234375-0.6108398-0.3188477-1.1396484-0.3930664-1.605957c-0.0688477-0.4321289-0.1337891-0.840332-0.3125-1.3051758   c-0.1484375-0.3867188,0.0444336-0.8203125,0.4311523-0.9692383c0.3857422-0.1474609,0.8203125,0.0439453,0.9692383,0.4311523   c0.2348633,0.6118164,0.3193359,1.140625,0.3935547,1.6074219c0.0688477,0.4321289,0.1337891,0.8398438,0.3120117,1.3046875   c0.1484375,0.3867188-0.0449219,0.8203125-0.4316406,0.96875C22.5522461,63.3955078,22.4614258,63.4116211,22.3720703,63.4116211z" fill="#373684"/><path d="M47.0087891,64.1611328c-0.3432617,0-0.652832-0.2368164-0.7314453-0.5859375   c-0.2114258-0.9428711-0.5068359-1.875-0.8774414-2.7695313c-0.1586914-0.3828125,0.0229492-0.8212891,0.4057617-0.9799805   c0.3813477-0.1586914,0.8212891,0.0229492,0.9799805,0.4057617c0.4038086,0.9741211,0.7250977,1.9887695,0.9555664,3.015625   c0.090332,0.4042969-0.1635742,0.8051758-0.5678711,0.8959961C47.1181641,64.1552734,47.0629883,64.1611328,47.0087891,64.1611328z   " fill="#373684"/><path d="M50.2597656,64.1289063c-0.3540039,0-0.6689453-0.2519531-0.7363281-0.612793   c-0.1982422-1.0639648-0.5356445-2.097168-1.0029297-3.0712891c-0.1791992-0.3735352-0.0214844-0.8212891,0.3520508-1.0004883   c0.3730469-0.1787109,0.8208008-0.0219727,1.0004883,0.3520508c0.5239258,1.0922852,0.9023438,2.2514648,1.125,3.4453125   c0.0756836,0.4067383-0.1928711,0.7988281-0.6000977,0.8745117C50.3515625,64.125,50.3056641,64.1289063,50.2597656,64.1289063z" fill="#373684"/><path d="M53.6831055,64.293457c-0.3105469,0-0.6010742-0.1943359-0.7084961-0.5043945l-1.2045898-3.4736328   c-0.1357422-0.3916016,0.0717773-0.8188477,0.4628906-0.9541016c0.3911133-0.1367188,0.8178711,0.0712891,0.9541016,0.4628906   l1.2045898,3.4736328c0.1357422,0.3911133-0.0712891,0.8183594-0.4628906,0.9541016   C53.8476563,64.2802734,53.7646484,64.293457,53.6831055,64.293457z" fill="#373684"/><path d="M56.777832,63.9599609c-0.3193359,0-0.6152344-0.2050781-0.7158203-0.5258789l-1.0483398-3.3481445   c-0.1235352-0.3950195,0.0961914-0.815918,0.4916992-0.9399414c0.3945313-0.1254883,0.8154297,0.0961914,0.9399414,0.4916992   l1.0483398,3.3481445c0.1235352,0.3955078-0.0966797,0.8164063-0.4916992,0.9399414   C56.9272461,63.9492188,56.8515625,63.9599609,56.777832,63.9599609z" fill="#373684"/><path d="M60.3588867,63.7250977c-0.2988281,0-0.5810547-0.1796875-0.6977539-0.4746094l-1.2719727-3.222168   c-0.1518555-0.3852539,0.0371094-0.8208008,0.4223633-0.9731445c0.3852539-0.1518555,0.8208008,0.0366211,0.9731445,0.4223633   l1.2719727,3.222168c0.1518555,0.3852539-0.0371094,0.8208008-0.4223633,0.9731445   C60.5439453,63.7084961,60.4506836,63.7250977,60.3588867,63.7250977z" fill="#373684"/><path d="M63.7592773,63.5234375c-0.2119141,0-0.4223633-0.0888672-0.5703125-0.2626953   c-0.9365234-1.0947266-1.5126953-2.4887695-1.6225586-3.9248047c-0.03125-0.4130859,0.277832-0.7734375,0.690918-0.8051758   c0.4082031-0.0302734,0.7734375,0.2773438,0.8051758,0.690918c0.0854492,1.1210938,0.5351563,2.2094727,1.2661133,3.0644531   c0.2695313,0.3144531,0.2324219,0.7880859-0.0825195,1.0571289C64.1049805,63.4643555,63.9316406,63.5234375,63.7592773,63.5234375   z" fill="#373684"/><path d="M35.7578125,28.4077148c-0.0512695,0-0.1030273-0.0048828-0.1547852-0.0161133   c-0.4057617-0.0849609-0.6650391-0.4824219-0.5800781-0.8876953c0.1586914-0.7578125,0.1567383-1.5581055-0.0063477-2.3144531   c-0.0874023-0.4047852,0.1699219-0.8041992,0.574707-0.8911133c0.4067383-0.0874023,0.8041992,0.1699219,0.8911133,0.574707   c0.2075195,0.9604492,0.2104492,1.9765625,0.0083008,2.9384766C36.4165039,28.1650391,36.1049805,28.4077148,35.7578125,28.4077148   z" fill="#373684"/><path d="M37.3286133,30.3950195c-0.2109375,0-0.4204102-0.0883789-0.5688477-0.2607422l-1.6147461-1.8745117   c-0.2705078-0.3139648-0.2348633-0.7875977,0.0791016-1.0576172c0.3129883-0.2705078,0.7866211-0.2353516,1.0576172,0.0791016   l1.6147461,1.8745117c0.2705078,0.3139648,0.2348633,0.7875977-0.0791016,1.0576172   C37.6757813,30.3354492,37.5019531,30.3950195,37.3286133,30.3950195z" fill="#373684"/></g></svg>