<?xml version="1.0" ?><!DOCTYPE svg  PUBLIC '-//W3C//DTD SVG 1.1//EN'  'http://www.w3.org/Graphics/SVG/1.1/DTD/svg11.dtd'><svg enable-background="new 0 0 70 70" id="Layer_1" version="1.1" viewBox="0 0 70 70" xml:space="preserve" xmlns="http://www.w3.org/2000/svg" xmlns:xlink="http://www.w3.org/1999/xlink"><g><path d="M32.1147461,66.7543945h-0.0004883c-2.3950195-0.0004883-5.9135742-0.2045898-9.315918-0.4023438   c-2.9208984-0.1694336-5.940918-0.3452148-8.2119141-0.3886719l-7.777832-0.1503906   c-0.550293-0.0107422-1.4711914-0.0288086-2.0888672-0.7001953c-0.5800781-0.6293945-0.5639648-1.4951172-0.5546875-2.0126953   c0.0576172-3.1274414,0.0581055-7.222168,0.059082-11.1821289c0.0024414-11.3291016,0.0537109-16.394043,0.5390625-17.3466797   c0.2695313-0.5283203,0.5742188-1.1274414,10.9946289-1.1274414c0.1855469,0,18.6889648,0.1152344,19.6503906,0.9467773   c0.2895508,0.2504883,0.7270508,0.6289063,0.8530273,15.7050781c0.0571289,6.8217773,0.0249023,15.1186523-0.4521484,15.9038086   C35.5048828,66.5,34.8500977,66.7543945,32.1147461,66.7543945z M6.0561523,35.4086914   c-0.3291016,1.5185547-0.3305664,9.8007813-0.3320313,16.5092773c-0.0009766,3.9667969-0.0014648,8.0688477-0.059082,11.2099609   c-0.0053711,0.2924805-0.0146484,0.78125,0.1582031,0.96875c0.184082,0.2001953,0.7241211,0.2109375,1.0146484,0.2163086   l7.777832,0.1503906c2.2993164,0.0444336,5.3344727,0.2207031,8.2695313,0.3911133   c3.3813477,0.1967773,6.8774414,0.3994141,9.2290039,0.3999023h0.0004883c1.5073242,0,2.1464844-0.0859375,2.4082031-0.1450195   c0.4277344-2.8735352,0.2514648-26.2163086-0.215332-29.5283203c-1.8920898-0.2626953-10.6181641-0.637207-18.5498047-0.637207   C8.4619141,34.9438477,6.5458984,35.2666016,6.0561523,35.4086914z" fill="#373684"/><path d="M53.9331055,66.8642578c-7.5429688,0-16.3969727-0.3730469-18.4755859-0.4902344   c-0.4135742-0.0234375-0.7294922-0.3779297-0.706543-0.7915039c0.0239258-0.4125977,0.3779297-0.7124023,0.7915039-0.706543   c10.5864258,0.5986328,26.6494141,0.6958008,28.6660156-0.0043945c0.4536133-1.4262695,0.2592773-9.9697266,0.1162109-16.2558594   c-0.090332-3.9755859-0.1835938-8.0859375-0.1679688-11.2094727c0.003418-0.6333008-0.0209961-1.277832-0.3466797-1.5883789   c-0.3022461-0.2866211-0.8891602-0.2919922-1.4931641-0.309082c-4.4682617,0.0068359-9.0532227,0.0405273-13.6381836,0.0737305   c-4.5878906,0.0332031-9.1757813,0.0664063-13.6464844,0.0737305c0,0-0.0004883,0-0.0009766,0   c-0.4135742,0-0.7495117-0.3349609-0.75-0.7490234s0.3344727-0.7504883,0.7490234-0.7509766   c4.4677734-0.0068359,9.0527344-0.0405273,13.6376953-0.0737305c4.5878906-0.0332031,9.1757813-0.0664063,13.6464844-0.0737305   c0.6625977-0.0014648,1.7670898-0.0029297,2.5297852,0.7226563c0.8222656,0.7832031,0.815918,1.972168,0.8125,2.6826172   c-0.015625,3.1025391,0.0776367,7.2026367,0.1674805,11.1674805c0.2905273,12.7563477,0.2563477,16.5834961-0.5283203,17.3691406   C64.597168,66.6508789,59.6401367,66.8642578,53.9331055,66.8642578z" fill="#373684"/><path d="M21.3745117,62.6367188c-0.0009766,0-0.0009766,0-0.0019531,0   C9.7495117,62.6362305,9.1054688,61.8398438,8.8935547,61.578125c-0.9375-1.1586914-1.6538086-21.046875-0.2211914-22.8369141   c0.4960938-0.6196289,1.6391602-1.003418,5.7973633-1.003418c1.862793,0,4.0595703,0.0771484,6.184082,0.1518555   c2.5996094,0.0908203,5.2861328,0.1879883,7.3515625,0.137207l0.3393555-0.0043945   c0.8642578,0,1.949707,0.1030273,2.6728516,0.9047852c0.652832,0.7231445,0.7163086,1.6640625,0.7255859,2.565918   c0.015625,1.5581055,0.0654297,3.4418945,0.1181641,5.4208984c0.3095703,11.6152344,0.1523438,14.4350586-0.8413086,15.0878906   C30.2211914,62.5263672,25.3339844,62.6367188,21.3745117,62.6367188z M10.0615234,60.5664063   c0.9814453,0.2885742,5.2890625,0.5703125,11.3110352,0.5703125c0.0004883,0,0.0014648,0,0.0014648,0   c4.8154297,0,8.0073242-0.1918945,8.765625-0.3833008c0.5551758-1.2993164,0.3554688-8.7954102,0.222168-13.7993164   c-0.0527344-1.9882813-0.1030273-3.8808594-0.1186523-5.4462891c-0.0063477-0.6391602-0.0371094-1.2412109-0.3388672-1.5756836   c-0.2592773-0.2871094-0.7255859-0.409668-1.5595703-0.409668l-0.3051758,0.0043945   c-2.1030273,0.046875-4.8168945-0.0463867-7.4379883-0.1381836c-2.1118164-0.0742188-4.2949219-0.1508789-6.1318359-0.1508789   c-3.8022461,0-4.5161133,0.3525391-4.6445313,0.4604492C8.9658203,41.2714844,9.4003906,58.2421875,10.0615234,60.5664063z" fill="#373684"/><path d="M46.8867188,62.5610352c-0.0004883,0-0.0004883,0-0.0004883,0   c-7.1181641,0-7.6733398-0.5942383-7.9404297-0.8798828c-0.2607422-0.2788086-0.953125-1.0195313-0.6767578-11.5893555   c0.1811523-6.9345703,0.5292969-10.6943359,1.0336914-11.175293c0.5356445-0.5097656,2.3349609-0.6225586,11.3256836-0.7114258   c2.5517578-0.0249023,5.1904297-0.0507813,7.184082-0.1201172c0.1879883-0.0063477,0.3793945-0.0117188,0.5712891-0.0117188   c0.734375,0,1.6757813,0.0732422,2.4467773,0.6474609c1.5478516,1.152832,1.3134766,3.418457,1.2006836,4.5073242   c-0.2583008,2.4995117-0.1298828,6.0942383-0.0166016,9.2666016c0.1948242,5.4365234,0.203125,7.7329102-0.5092773,8.5581055   C60.2177734,62.5439453,47.4375,62.5610352,46.8867188,62.5610352z M40.0541992,60.6298828   c0.4868164,0.1674805,2.3808594,0.4311523,6.8320313,0.4311523c0.0004883,0,0.0014648,0,0.0014648,0   c6.7167969,0,12.7944336-0.5615234,13.5419922-1.0444336c0.3334961-0.5561523,0.1904297-4.5512695,0.0859375-7.46875   c-0.1152344-3.2207031-0.2456055-6.8710938,0.0234375-9.4741211c0.1347656-1.3017578,0.1547852-2.5844727-0.6044922-3.1499023   c-0.3300781-0.2460938-0.7939453-0.3505859-1.5507813-0.3505859c-0.1743164,0-0.3486328,0.0048828-0.5195313,0.0107422   c-2.0117188,0.0698242-4.6601563,0.0961914-7.2211914,0.1210938c-3.8310547,0.0375977-8.9873047,0.0883789-10.2382813,0.3364258   C39.824707,42.5717773,39.34375,58.6030273,40.0541992,60.6298828z" fill="#373684"/><path d="M50.8754883,35.375c-0.0083008,0-0.0166016,0-0.0249023-0.0004883   c-0.4140625-0.0136719-0.7387695-0.3598633-0.7250977-0.7739258c0.0864258-2.640625-0.0268555-5.1821289-0.1367188-7.6396484   c-0.0996094-2.2387695-0.203125-4.5532227-0.1552734-6.9345703c0.0400391-1.9897461-0.0415039-3.9785156-0.1210938-5.9013672   c-0.0693359-1.6894531-0.1416016-3.4360352-0.1328125-5.2001953c0.0073242-1.5410156-0.2954102-2.4619141-0.9262695-2.8154297   c-0.4672852-0.2617188-1.2529297-0.2333984-1.9462891-0.2080078c-0.1831055,0.0068359-0.3618164,0.0131836-0.5322266,0.0151367   C40.4624023,5.9838867,35.7280273,5.84375,30.7177734,5.6943359c-1.2583008-0.0375977-2.5390625-0.0756836-3.862793-0.1113281   c-0.3500977-0.0092773-0.7314453-0.0229492-1.1313477-0.0375977c-1.5439453-0.0551758-5.0820313-0.1831055-5.8325195,0.2685547   c-0.34375,1.3203125,0.1533203,9.4101563,0.5546875,15.940918c0.265625,4.3232422,0.5405273,8.793457,0.6552734,12.2109375   c0.0141602,0.4140625-0.3105469,0.7612305-0.7241211,0.7749023c-0.4179688,0.0307617-0.7607422-0.3100586-0.7749023-0.7241211   c-0.1142578-3.3969727-0.3881836-7.8569336-0.6533203-12.1699219C18.1088867,8.1791992,18.0800781,5.4702148,18.7666016,4.7978516   c0.918457-0.8989258,3.4848633-0.8774414,7.0112305-0.7514648c0.3950195,0.0141602,0.7719727,0.027832,1.1176758,0.0375977   c1.324707,0.0356445,2.6069336,0.0737305,3.8671875,0.1108398c4.9936523,0.1484375,9.7089844,0.2871094,15.3950195,0.2216797   c0.1586914-0.0019531,0.324707-0.0078125,0.4946289-0.0141602c0.887207-0.0317383,1.8994141-0.0698242,2.734375,0.3984375   c1.53125,0.8583984,1.699707,2.769043,1.6928711,4.1313477c-0.0087891,1.7294922,0.0625,3.4584961,0.1318359,5.1308594   c0.0800781,1.9458008,0.1630859,3.9580078,0.1220703,5.9936523c-0.0473633,2.3325195,0.0551758,4.6225586,0.1538086,6.8374023   c0.1108398,2.4863281,0.2255859,5.0566406,0.137207,7.7553711C51.6113281,35.0551758,51.2783203,35.375,50.8754883,35.375z" fill="#373684"/><path d="M32.9624023,32.6347656c-8.1645508,0-8.5976563-0.6650391-8.855957-1.0625   c-0.6333008-0.9736328-2.3027344-21.5917969-0.6171875-23.0712891c0.5058594-0.4443359,1.6611328-0.7016602,6.0668945-0.7016602   c1.9462891,0,4.2373047,0.0517578,6.453125,0.1015625c2.2070313,0.0498047,4.4892578,0.1015625,6.418457,0.1015625   c0.0009766,0,0.0014648,0,0.0024414,0c0.4799805,0,0.9399414-0.0029297,1.3769531-0.0102539l0.2236328-0.0019531   c0.7392578,0,1.5791016,0.0820313,2.1992188,0.6923828c0.7358398,0.7241211,0.7299805,1.793457,0.7260742,2.4321289   c-0.0136719,2.1948242,0.0483398,5.0737305,0.1083984,7.8579102c0.1938477,8.9848633,0.1669922,11.7060547-0.3828125,12.4267578   C45.7841797,32.5751953,35.0961914,32.6347656,32.9624023,32.6347656z M25.3378906,30.6655273   c0.5449219,0.1923828,2.6323242,0.4692383,7.6245117,0.4692383c5.9804688,0,11.4555664-0.3842773,12.5546875-0.7333984   c0.2705078-1.0595703,0.1420898-7.012207,0.0478516-11.3959961c-0.0600586-2.7944336-0.1225586-5.684082-0.1088867-7.8994141   c0.003418-0.543457-0.015625-1.0961914-0.277832-1.3540039c-0.234375-0.2304688-0.7114258-0.2617188-1.1474609-0.2617188   L43.831543,9.4921875c-0.4448242,0.0073242-0.9125977,0.0102539-1.4013672,0.0102539c-0.0009766,0-0.0014648,0-0.0024414,0   c-1.9462891,0-4.2368164-0.0517578-6.4526367-0.1020508c-2.2070313-0.0498047-4.4897461-0.1010742-6.4189453-0.1010742   c-3.6538086,0-4.7197266,0.1992188-5.0302734,0.3164063C23.7578125,11.7001953,24.7084961,28.6191406,25.3378906,30.6655273z" fill="#373684"/><path d="M39.9296875,26.6640625c-0.3491211,0-0.6621094-0.2451172-0.7338867-0.6010742   c-0.7602539-3.7470703-1.9223633-7.421875-3.4541016-10.921875c-0.2900391-0.6645508-0.7802734-1.4199219-1.2333984-1.3251953   c-0.3046875,0.0581055-0.5776367,0.5083008-0.8115234,1.3378906c-0.2871094,1.0205078-0.5966797,2.0737305-0.9125977,3.1459961   c-0.7441406,2.5297852-1.5141602,5.1455078-2.0942383,7.699707c-0.0917969,0.4038086-0.4926758,0.65625-0.8974609,0.5654297   c-0.4038086-0.0917969-0.6572266-0.4936523-0.5654297-0.8974609c0.5908203-2.6000977,1.3671875-5.2392578,2.1181641-7.7910156   c0.3139648-1.0668945,0.6220703-2.1137695,0.9077148-3.1289063c0.1650391-0.5859375,0.6035156-2.1420898,1.9731445-2.4047852   c1.152832-0.2192383,2.1738281,0.5605469,2.8896484,2.1967773c1.574707,3.5976563,2.769043,7.3745117,3.5498047,11.2255859   c0.0825195,0.4057617-0.1796875,0.8017578-0.5859375,0.8837891C40.0292969,26.6591797,39.9794922,26.6640625,39.9296875,26.6640625   z" fill="#373684"/><path d="M31.8295898,21.8842773c-0.3847656,0-0.7124023-0.2949219-0.7460938-0.6855469   c-0.0356445-0.4125977,0.2700195-0.7758789,0.6826172-0.8115234l5.9985352-0.5180664   c0.4018555-0.0336914,0.7758789,0.2695313,0.8115234,0.6826172c0.0356445,0.4125977-0.2700195,0.7758789-0.6826172,0.8115234   l-5.9985352,0.5180664C31.8730469,21.8833008,31.8515625,21.8842773,31.8295898,21.8842773z" fill="#373684"/><path d="M15.1245117,56.5415039c-0.4038086,0-0.7373047-0.3212891-0.7490234-0.7280273   c-0.0620117-2.105957-0.0004883-4.034668,0.059082-5.8994141c0.059082-1.8427734,0.1196289-3.7480469,0.0595703-5.8085938   c-0.012207-0.4140625,0.3134766-0.7592773,0.7275391-0.7714844c0.4199219-0.015625,0.7597656,0.3134766,0.7714844,0.7275391   c0.0620117,2.1064453,0.0004883,4.0351563-0.059082,5.9003906c-0.059082,1.8422852-0.1196289,3.7475586-0.0595703,5.8076172   c0.012207,0.4140625-0.3134766,0.7592773-0.7275391,0.7714844C15.1396484,56.5415039,15.1318359,56.5415039,15.1245117,56.5415039z   " fill="#373684"/><path d="M15.996582,50.9799805c-0.3852539,0-0.7133789-0.2954102-0.746582-0.6865234   c-0.034668-0.4130859,0.2714844-0.7758789,0.684082-0.8110352c1.9785156-0.1674805,3.9428711-0.5493164,5.8388672-1.1352539   c0.8032227-0.2475586,1.6708984-0.5869141,2.019043-1.2290039c0.3779297-0.6962891,0.03125-1.6616211-0.5224609-2.1918945   c-0.5834961-0.5585938-1.4785156-0.9125977-2.6611328-1.0507813c-1.71875-0.2041016-3.4663086,0.0507813-5.0571289,0.7319336   c-0.3808594,0.1625977-0.8217773-0.0141602-0.984375-0.3945313c-0.1630859-0.3808594,0.0136719-0.8212891,0.3945313-0.984375   c1.8320313-0.7836914,3.8457031-1.0742188,5.8217773-0.8432617c1.5136719,0.1777344,2.6992188,0.6679688,3.5239258,1.4580078   c1.1318359,1.0839844,1.4692383,2.762207,0.8032227,3.9902344c-0.6054688,1.1157227-1.8032227,1.6103516-2.8950195,1.9472656   c-1.9985352,0.6171875-4.0693359,1.0195313-6.1542969,1.1967773C16.0395508,50.9790039,16.0180664,50.9799805,15.996582,50.9799805   z" fill="#373684"/><path d="M15.8930664,56.6738281c-0.2143555,0-0.421875-0.0029297-0.6196289-0.0073242   C14.859375,56.65625,14.5317383,56.3125,14.5415039,55.8984375c0.0102539-0.4082031,0.34375-0.7319336,0.7495117-0.7319336   c0.0063477,0,0.0126953,0,0.0185547,0c1.9003906,0.0473633,4.6704102-0.1264648,6.7524414-0.7509766   c0.7734375-0.2324219,1.6245117-0.5532227,2.0732422-1.1743164c0.3803711-0.5268555,0.4296875-1.293457,0.1196289-1.8642578   c-0.2636719-0.4863281-2.2402344-1.3378906-3.0092773-1.2944336c-0.4204102,0.0097656-0.765625-0.2988281-0.7861328-0.7119141   c-0.0205078-0.4135742,0.2983398-0.765625,0.7119141-0.7861328c1.1586914-0.043457,3.7880859,0.9462891,4.4018555,2.0766602   c0.5839844,1.0756836,0.4946289,2.4658203-0.222168,3.4584961c-0.7114258,0.984375-1.8442383,1.4282227-2.8579102,1.7324219   C20.4648438,56.4609375,17.862793,56.6738281,15.8930664,56.6738281z" fill="#373684"/><path d="M50.9658203,55.9233398c-1.5522461,0-3.1074219-0.4628906-4.2241211-1.3745117   c-2.1269531-1.7373047-2.8994141-4.9433594-1.796875-7.4584961c0.5258789-1.1987305,1.4482422-2.2529297,2.597168-2.96875   c2.3623047-1.4707031,5.1396484-1.3579102,7.4296875,0.3022461c0.3349609,0.2431641,0.409668,0.7124023,0.1669922,1.0478516   c-0.2441406,0.3354492-0.7128906,0.4086914-1.0478516,0.1669922c-1.777832-1.2900391-3.9301758-1.3803711-5.7558594-0.2436523   c-0.8945313,0.5571289-1.6108398,1.3735352-2.0161133,2.2978516c-0.8417969,1.9199219-0.2524414,4.3676758,1.371582,5.6938477   c1.6088867,1.3144531,4.5317383,1.4018555,6.2519531,0.1879883c0.3393555-0.2382813,0.8066406-0.1582031,1.0454102,0.1801758   c0.2387695,0.3388672,0.1582031,0.8066406-0.1801758,1.0454102C53.7416992,55.5522461,52.3549805,55.9233398,50.9658203,55.9233398   z" fill="#373684"/></g></svg>